<?xml version="1.0" standalone="no"?>
<!DOCTYPE svg PUBLIC "-//W3C//DTD SVG 20010904//EN"
 "http://www.w3.org/TR/2001/REC-SVG-20010904/DTD/svg10.dtd">
<svg version="1.0" xmlns="http://www.w3.org/2000/svg"
 width="180.000000pt" height="180.000000pt" viewBox="0 0 180.000000 180.000000"
 preserveAspectRatio="xMidYMid meet">
<metadata>
Created by potrace 1.16, written by Peter Selinger 2001-2019
</metadata>
<g transform="translate(0.000000,180.000000) scale(0.100000,-0.100000)"
fill="#000000" stroke="none">
<path d="M449 1606 c-76 -27 -159 -115 -180 -191 l-11 -38 414 -414 414 -413
59 20 59 20 186 -185 c194 -193 216 -208 254 -169 38 37 23 58 -169 253 l-185
188 20 59 20 58 -412 413 c-227 227 -417 413 -423 413 -5 -1 -26 -7 -46 -14z"/>
<path d="M569 777 c-57 -39 -76 -106 -44 -166 15 -30 68 -61 103 -61 131 0
169 174 52 235 -40 21 -72 19 -111 -8z"/>
</g>
</svg>
