<svg xmlns="http://www.w3.org/2000/svg" width="64" height="27" viewBox="0 0 64 27">
    <defs>
        <style>
            .cls-1,.cls-2{fill:#ea148c}.cls-1{fill-rule:evenodd}
        </style>
    </defs>
    <g id="Astro_logo" data-name="Astro logo" transform="translate(-1096.92 -47.445)">
        <g id="Group_1" data-name="Group 1" transform="translate(1096.923 47.445)">
            <path id="Path_1" d="M1168.359 63.773c-1.22 0-1.935-.427-1.935-2.212v-8.02l3.32-.279v-2.34h-3.32v-3.477h-3.594v3.477h-1.985v2.341l1.985.279v8.828c0 3.466 1.875 4.632 4.516 4.632a9.157 9.157 0 0 0 2.865-.559v-2.814a10.913 10.913 0 0 1-1.852.144z" class="cls-1" data-name="Path 1" transform="translate(-1132.257 -47.445)"/>
            <path id="Path_2" d="M1212.929 54.66c-4.164 0-7.719 3.049-7.719 8.159 0 5.073 3.554 8.121 7.719 8.121s7.718-2.961 7.718-8.121-3.547-8.159-7.718-8.159zm0 13.208c-2.592 0-4.285-2.239-4.285-5.055 0-2.842 1.693-5.081 4.285-5.081s4.288 2.217 4.288 5.081-1.692 5.055-4.288 5.055z" class="cls-2" data-name="Path 2" transform="translate(-1156.65 -51.383)"/>
            <path id="Path_3" d="M1103.363 54.66a11.425 11.425 0 0 0-5.255 1.46l.594 2.556a10.258 10.258 0 0 1 4.224-1.018c2.892 0 4.422 1.382 4.422 4.07a12.73 12.73 0 0 0-4.4-.77c-3.376 0-6.024 1.753-6.024 5.141 0 3.146 2.562 4.84 5.253 4.84 2.623 0 4.264-.751 5.166-1.774l.473 1.473h3V61.3c.008-4.189-2.822-6.64-7.453-6.64zm3.985 9.927c0 2.207-1.3 3.681-4.157 3.681-1.695 0-3.035-.86-3.035-2.348 0-1.6 1.34-2.53 3.6-2.53a9.247 9.247 0 0 1 3.592.705z" class="cls-2" data-name="Path 3" transform="translate(-1096.928 -51.383)"/>
            <path id="Path_4" d="M1142.626 58.407a11.394 11.394 0 0 0-3.825-.784c-1.337 0-2.018.741-2.018 1.477 0 .7.358 1.136 1.565 1.626l2.931 1.182a4.345 4.345 0 0 1 3.03 4.085c0 3.351-2.9 4.947-6.159 4.947a11.458 11.458 0 0 1-5.623-1.629l.619-2.624a15.24 15.24 0 0 0 5.1 1.314c1.406 0 2.362-.639 2.362-1.689 0-.894-.656-1.387-1.969-1.886l-2.524-.958a4.54 4.54 0 0 1-3.287-4.245c0-3.128 2.938-4.564 5.776-4.564a14 14 0 0 1 4.678.959z" class="cls-2" data-name="Path 4" transform="translate(-1116.589 -51.383)"/>
            <path id="Path_5" d="M1190.42 57.5v-2.543h-3.441v15.681h3.591V63.5c0-4.122 2.086-5.533 4.58-5.533V54.66a5.184 5.184 0 0 0-4.73 2.84z" class="cls-1" data-name="Path 5" transform="translate(-1146.721 -51.383)"/>
        </g>
        <path id="Path_6" d="M1160.7 92.54c-.229.388-3.767 6.736-17.483 6.736-9.528 0-21.3-3.042-32.639-3.042-5.325 0-9.638.252-13.16 1.248-.238.068-.5 0-.5-.19s.234-.324.445-.432a35.364 35.364 0 0 1 15.282-3.211c12.906 0 23.048 2.407 32.578 2.407 10.368 0 14.773-3.761 15.116-4.039.44-.357.578-.113.578 0a1.318 1.318 0 0 1-.217.523z" class="cls-2" data-name="Path 6" transform="translate(0 -24.832)"/>
    </g>
</svg>