<?xml version="1.0" standalone="no"?>
<!DOCTYPE svg PUBLIC "-//W3C//DTD SVG 20010904//EN"
 "http://www.w3.org/TR/2001/REC-SVG-20010904/DTD/svg10.dtd">
<svg version="1.0" xmlns="http://www.w3.org/2000/svg"
 width="112.000000pt" height="128.000000pt" viewBox="0 0 112.000000 128.000000"
 preserveAspectRatio="xMidYMid meet">
<metadata>
Created by potrace 1.16, written by Peter Selinger 2001-2019
</metadata>
<g transform="translate(0.000000,128.000000) scale(0.100000,-0.100000)"
fill="#000000" stroke="none">
<path d="M892 1021 c-7 -4 -10 -15 -7 -24 5 -11 2 -14 -12 -11 -12 3 -42 -17
-91 -61 -62 -55 -79 -65 -106 -63 -33 2 -76 -19 -186 -90 -113 -74 -239 -197
-339 -329 -123 -164 -140 -212 -92 -269 17 -21 71 -54 89 -54 4 0 36 42 69 93
33 50 82 119 109 152 72 89 278 291 372 364 82 65 90 75 72 86 -15 9 -12 43 4
52 8 4 44 37 80 71 45 44 64 68 58 77 -4 8 -13 11 -20 6z"/>
<path d="M104 979 c-4 -7 20 -36 60 -71 36 -33 66 -64 66 -70 0 -5 -7 -16 -16
-25 -14 -14 -13 -17 9 -32 13 -9 44 -33 69 -53 52 -44 67 -46 94 -17 19 21 18
21 -9 44 -15 13 -35 28 -44 34 -10 5 -15 12 -12 15 3 3 27 -10 53 -29 47 -33
49 -34 72 -17 13 9 22 21 20 27 -4 14 -138 85 -149 78 -19 -11 -55 9 -117 66
-66 61 -83 70 -96 50z"/>
<path d="M592 622 c-103 -93 -183 -178 -269 -285 -62 -77 -119 -164 -112 -172
3 -3 137 142 292 318 40 45 113 124 161 175 67 70 22 47 -72 -36z"/>
<path d="M642 618 c-21 -21 -13 -38 49 -101 79 -81 236 -317 210 -317 -5 0
-24 26 -42 58 -54 97 -116 185 -166 237 -78 82 -79 83 -113 50 -17 -16 -30
-36 -30 -44 1 -9 26 -43 56 -76 66 -72 184 -233 184 -252 0 -7 4 -13 9 -13 5
0 11 -10 14 -21 11 -42 96 -1 132 64 l19 36 -23 43 c-69 124 -245 348 -274
348 -7 0 -18 -5 -25 -12z"/>
</g>
</svg>
