<?xml version="1.0" standalone="no"?>
<!DOCTYPE svg PUBLIC "-//W3C//DTD SVG 20010904//EN"
 "http://www.w3.org/TR/2001/REC-SVG-20010904/DTD/svg10.dtd">
<svg version="1.0" xmlns="http://www.w3.org/2000/svg"
 width="270.000000pt" height="242.000000pt" viewBox="0 0 270.000000 242.000000"
 preserveAspectRatio="xMidYMid meet">
<metadata>
Created by potrace 1.16, written by Peter Selinger 2001-2019
</metadata>
<g transform="translate(0.000000,242.000000) scale(0.100000,-0.100000)"
fill="#000000" stroke="none">
<path d="M1225 2244 c-11 -2 -54 -12 -95 -21 -426 -93 -770 -455 -839 -883
-14 -82 -14 -274 -1 -364 19 -129 73 -273 156 -413 20 -34 34 -42 34 -20 0 19
27 53 36 45 4 -4 -1 -25 -11 -47 l-17 -39 33 -42 34 -42 2 43 c2 24 10 98 19
164 58 443 240 822 538 1120 56 56 115 112 131 125 136 111 259 190 404 262
120 58 119 72 -3 69 -62 -1 -69 1 -53 13 16 13 16 14 -5 21 -27 8 -334 16
-363 9z"/>
<path d="M1780 2150 c-8 -4 -60 -30 -115 -56 -587 -282 -988 -854 -1055 -1505
-18 -176 -15 -208 22 -246 l32 -33 12 30 c16 37 37 40 28 5 -12 -50 -9 -58 46
-96 143 -99 306 -160 497 -186 114 -15 132 -15 247 0 258 35 454 125 638 295
132 122 252 325 305 517 26 93 28 113 27 280 0 191 -13 263 -74 415 -74 188
-227 376 -397 490 -75 50 -97 58 -108 40 -3 -5 -26 -10 -51 -10 -32 0 -44 4
-44 15 0 11 13 15 53 15 l52 1 -39 19 c-43 22 -53 23 -76 10z"/>
</g>
</svg>
