<?xml version="1.0" standalone="no"?>
<!DOCTYPE svg PUBLIC "-//W3C//DTD SVG 20010904//EN"
 "http://www.w3.org/TR/2001/REC-SVG-20010904/DTD/svg10.dtd">
<svg version="1.0" xmlns="http://www.w3.org/2000/svg"
 width="350.000000pt" height="460.000000pt" viewBox="0 0 350.000000 460.000000"
 preserveAspectRatio="xMidYMid meet">
<metadata>
Created by potrace 1.16, written by Peter Selinger 2001-2019
</metadata>
<g transform="translate(0.000000,460.000000) scale(0.100000,-0.100000)"
fill="#000000" stroke="none">
<path d="M3002 3762 c-18 -37 -44 -87 -58 -112 -14 -25 -46 -81 -71 -125 -25
-44 -51 -89 -57 -100 -184 -323 -564 -893 -836 -1251 -160 -211 -393 -495
-413 -503 -11 -4 -69 58 -65 69 2 4 30 37 63 73 144 155 362 431 571 722 240
333 585 878 681 1075 9 19 19 37 22 40 13 11 61 111 61 125 0 8 5 15 10 15 6
0 10 7 10 16 0 25 -13 10 -45 -53 -16 -32 -32 -60 -35 -63 -3 -3 -12 -18 -20
-35 -8 -16 -25 -47 -38 -68 -13 -21 -32 -55 -44 -75 -11 -20 -56 -95 -100
-167 -44 -71 -85 -139 -91 -150 -80 -132 -323 -485 -334 -485 -9 0 -13 -6 -9
-15 3 -8 -1 -21 -9 -29 -8 -8 -15 -17 -15 -20 0 -3 -19 -32 -43 -63 -23 -32
-54 -75 -67 -95 -14 -21 -31 -38 -38 -38 -7 0 -17 -12 -23 -27 -11 -29 -83
-133 -120 -174 -13 -14 -40 -48 -58 -75 -19 -27 -37 -51 -41 -54 -3 -3 -30
-36 -61 -75 -31 -38 -98 -119 -148 -178 -81 -95 -96 -108 -117 -103 -14 4 -24
2 -24 -4 0 -5 5 -10 10 -10 21 0 8 -23 -49 -82 l-58 -61 -42 16 c-23 10 -49
17 -59 16 -13 0 -14 -2 -2 -6 8 -4 21 -12 28 -19 7 -8 21 -18 30 -24 15 -8 10
-16 -38 -61 -30 -28 -71 -63 -90 -77 -19 -15 -37 -29 -40 -32 -3 -3 -20 -13
-39 -22 -20 -9 -29 -18 -22 -22 13 -8 118 63 203 137 l59 50 34 -33 c20 -19
33 -40 31 -46 -2 -6 2 -11 9 -10 17 1 116 -111 170 -194 23 -36 62 -105 86
-155 55 -114 63 -89 10 33 -72 166 -196 354 -266 401 -19 13 -35 29 -35 35 0
15 92 106 107 106 12 0 53 -52 53 -67 0 -5 -16 -25 -36 -46 -20 -21 -34 -40
-31 -43 2 -3 21 12 41 32 20 20 39 34 43 30 13 -12 82 -138 123 -221 21 -44
54 -131 73 -194 37 -123 54 -137 32 -26 -29 149 -101 337 -166 432 -16 23 -29
46 -29 52 0 6 20 32 44 57 43 46 66 51 66 15 0 -10 3 -21 6 -24 9 -8 91 -246
110 -317 8 -30 26 -127 39 -215 l24 -160 -5 140 c-5 125 -16 213 -43 340 -16
74 -76 206 -113 245 -24 26 -23 45 6 78 13 15 43 50 67 78 24 27 69 82 99 122
39 50 61 70 75 69 15 -2 21 5 25 29 3 17 14 44 25 59 11 15 43 57 70 93 28 37
78 105 112 152 34 47 68 94 76 104 14 19 16 18 36 -22 11 -23 21 -47 21 -53 0
-7 -20 -35 -44 -63 -49 -58 -97 -121 -139 -182 -42 -61 -147 -184 -157 -184
-6 0 -10 9 -10 19 0 31 -17 34 -23 3 -7 -35 11 -199 26 -234 9 -21 19 -28 39
-28 16 0 28 2 28 4 0 2 -14 45 -30 95 l-31 92 107 102 c115 110 166 173 203
252 36 77 36 78 46 78 6 0 26 -40 46 -89 19 -49 43 -106 52 -128 9 -21 17 -44
17 -50 0 -7 4 -16 8 -22 13 -14 32 -88 33 -130 1 -35 3 -34 11 18 10 56 9 59
-58 225 -37 92 -87 206 -110 252 l-44 84 99 146 c103 154 301 459 301 466 0 2
31 54 68 117 86 142 116 196 213 386 82 159 84 162 72 162 -5 0 -23 -31 -41
-68z"/>
<path d="M2143 3228 c-17 -20 -91 -123 -158 -223 -18 -25 -27 -30 -60 -28 -25
0 -30 -1 -12 -4 35 -6 35 -26 -3 -98 -16 -31 -30 -72 -30 -91 0 -38 -24 -59
-130 -114 -115 -59 -150 -94 -150 -153 0 -26 21 -77 33 -77 10 0 9 18 -3 25
-16 10 -12 47 9 81 13 22 36 37 77 53 33 13 67 27 77 32 10 5 22 7 27 4 5 -3
11 -1 15 4 3 6 26 20 51 33 53 26 74 51 74 90 0 23 52 136 79 173 4 6 14 26
21 45 7 19 25 59 38 89 29 66 73 181 69 181 -2 0 -13 -10 -24 -22z"/>
<path d="M1430 3097 c-85 -38 -140 -119 -140 -205 0 -63 41 -128 99 -159 51
-27 51 -27 51 -9 0 8 -9 17 -19 21 -21 6 -60 55 -79 98 -20 46 -15 106 14 154
26 44 89 93 121 93 10 0 25 5 33 10 22 14 -48 12 -80 -3z"/>
<path d="M2358 1138 c-9 -14 -20 -43 -24 -64 -6 -36 -6 -38 9 -25 13 10 17 11
17 1 0 -7 18 -30 39 -52 42 -41 79 -48 138 -27 38 13 69 66 59 103 -4 15 -11
24 -16 21 -5 -3 -27 11 -50 31 -50 46 -53 33 -3 -18 l37 -38 -22 -20 c-27 -25
-37 -25 -69 0 -15 11 -29 18 -32 14 -3 -3 4 -14 17 -24 31 -26 29 -44 -5 -35
-46 11 -99 59 -94 86 1 13 8 27 13 30 5 4 8 15 6 25 -3 16 -5 15 -20 -8z"/>
<path d="M2620 968 c-77 -115 -128 -155 -181 -143 -38 9 -51 33 -39 76 15 52
12 57 -15 24 -33 -40 -34 -94 -2 -123 18 -17 35 -22 82 -22 54 0 60 2 94 38
20 21 46 58 57 83 12 24 29 59 38 78 18 39 19 41 9 41 -5 0 -24 -23 -43 -52z"/>
<path d="M2070 990 c-13 -8 -13 -10 1 -10 28 0 63 -23 128 -82 56 -50 61 -58
44 -66 -10 -6 -29 -28 -42 -51 -30 -49 -47 -54 -118 -35 -113 29 -139 65 -108
149 6 17 4 17 -14 -4 -25 -28 -28 -87 -5 -119 34 -50 195 -103 248 -82 31 11
35 19 53 93 24 97 21 126 -13 154 -54 45 -145 73 -174 53z"/>
<path d="M1191 640 c-79 -18 -121 -80 -121 -175 0 -59 24 -130 53 -159 24 -25
96 -56 127 -56 31 0 66 14 85 34 17 18 36 67 29 77 -10 18 -68 42 -72 31 -8
-25 -45 -62 -60 -62 -21 1 -56 28 -71 57 -18 35 -13 124 8 152 26 33 78 32
106 -3 22 -28 79 -36 88 -13 9 23 -33 95 -61 105 -44 17 -75 20 -111 12z"/>
<path d="M1987 636 c-83 -30 -117 -94 -117 -222 0 -107 15 -158 57 -200 83
-83 201 -50 232 64 12 41 3 57 -39 67 -22 5 -27 2 -39 -30 -15 -44 -49 -62
-81 -45 -70 38 -65 258 7 276 32 9 51 -1 71 -36 14 -25 22 -30 42 -25 49 12
55 28 30 80 -17 36 -33 52 -64 66 -49 22 -50 22 -99 5z"/>
<path d="M1418 633 c-2 -5 -4 -98 -3 -208 l0 -200 38 -3 37 -3 0 76 c0 58 3
77 15 81 24 9 43 -13 86 -98 22 -43 45 -78 53 -78 7 0 28 -3 45 -6 42 -9 41 4
-13 110 l-45 88 30 26 c57 51 48 164 -15 203 -25 15 -50 19 -128 19 -53 0 -98
-3 -100 -7z"/>
<path d="M1749 593 c0 -26 -2 -126 -5 -222 -6 -188 -5 -191 48 -191 37 0 40
20 36 260 l-3 195 -37 3 -38 3 -1 -48z"/>
<path d="M2216 632 c-7 -12 -6 -359 1 -415 5 -37 6 -38 41 -35 l37 3 1 68 c2
67 20 107 48 107 6 0 27 -37 47 -83 35 -82 35 -82 75 -85 67 -4 71 7 32 79
-19 35 -50 92 -67 126 l-33 61 57 77 c77 105 77 105 17 105 l-51 0 -53 -77
c-29 -43 -57 -77 -63 -75 -5 1 -10 35 -11 74 l-1 73 -36 3 c-19 2 -38 -1 -41
-6z"/>
<path d="M2557 633 c-4 -3 -7 -100 -7 -215 0 -167 3 -210 14 -214 14 -5 232
22 247 32 16 9 10 64 -7 71 -9 3 -46 1 -83 -4 -77 -12 -91 -6 -91 43 0 42 24
54 111 54 l60 0 -3 43 -3 42 -80 0 c-76 0 -80 1 -83 23 -6 41 14 52 98 52 42
0 79 2 81 5 3 2 3 20 1 40 l-4 35 -122 0 c-68 0 -126 -3 -129 -7z"/>
<path d="M2837 633 c-2 -5 -4 -21 -3 -38 1 -28 4 -30 46 -33 24 -2 48 -8 51
-14 4 -6 8 -72 8 -147 1 -74 4 -137 6 -140 3 -2 19 0 37 5 l33 10 0 136 c0 75
3 139 7 143 3 4 22 8 41 9 46 4 56 12 54 44 l-2 27 -137 3 c-75 1 -139 -1
-141 -5z"/>
</g>
</svg>
