<?xml version="1.0" standalone="no"?>
<!DOCTYPE svg PUBLIC "-//W3C//DTD SVG 20010904//EN"
 "http://www.w3.org/TR/2001/REC-SVG-20010904/DTD/svg10.dtd">
<svg version="1.0" xmlns="http://www.w3.org/2000/svg"
 width="132.000000pt" height="114.000000pt" viewBox="0 0 132.000000 114.000000"
 preserveAspectRatio="xMidYMid meet">
<metadata>
Created by potrace 1.16, written by Peter Selinger 2001-2019
</metadata>
<g transform="translate(0.000000,114.000000) scale(0.100000,-0.100000)"
fill="#000000" stroke="none">
<path d="M718 890 c-259 -156 -406 -310 -390 -409 11 -70 73 -166 145 -223 49
-38 54 -40 102 -33 89 11 276 136 453 300 64 60 82 83 82 104 0 61 -46 67
-116 14 -27 -20 -51 -39 -54 -42 -3 -4 -32 -26 -64 -51 -33 -25 -86 -70 -117
-102 -78 -76 -126 -111 -143 -105 -20 8 -146 187 -146 208 0 21 111 119 135
119 10 0 37 16 61 35 24 20 78 62 121 94 43 31 84 69 92 84 13 24 12 29 -4 47
-27 30 -51 24 -157 -40z"/>
<path d="M865 842 c-39 -31 -84 -66 -99 -77 -15 -11 -44 -33 -64 -49 -21 -15
-45 -34 -56 -41 -18 -13 -18 -15 11 -53 25 -35 32 -39 48 -29 11 5 22 13 25
16 3 4 25 22 50 41 25 19 52 40 60 47 86 67 150 127 150 142 0 15 -39 62 -51
61 -2 -1 -36 -27 -74 -58z"/>
<path d="M920 743 c-41 -32 -84 -65 -95 -75 -10 -10 -41 -33 -67 -51 -26 -17
-49 -37 -52 -43 -2 -7 9 -30 26 -53 32 -43 40 -44 83 -4 11 10 48 40 81 66 97
74 174 147 174 166 0 23 -31 51 -56 51 -10 0 -53 -26 -94 -57z"/>
<path d="M569 633 c-19 -15 -43 -36 -53 -45 -11 -10 -23 -18 -28 -18 -25 0 2
-49 80 -145 5 -6 17 -23 26 -38 10 -15 25 -27 33 -27 17 0 123 88 123 102 0
11 -92 140 -125 176 l-22 23 -34 -28z"/>
<path d="M304 435 c-7 -16 17 -73 47 -117 30 -42 22 -74 -24 -91 -28 -10 -50
7 -75 57 -24 46 -39 63 -49 52 -11 -11 62 -119 110 -162 l49 -44 61 42 c34 22
64 42 66 44 2 2 -23 30 -56 62 -34 33 -72 84 -88 115 -15 32 -29 57 -31 57 -3
0 -7 -7 -10 -15z"/>
<path d="M753 292 c-39 -26 -72 -50 -72 -53 -1 -7 180 -47 250 -56 52 -6 68
10 43 46 -17 23 -128 111 -141 111 -4 -1 -40 -22 -80 -48z"/>
</g>
</svg>
